<svg xmlns="http://www.w3.org/2000/svg" width="24" height="22.812" viewBox="0 0 24 22.812">
  <g id="flaticon1481383135-svg" transform="translate(0 22.812) rotate(-90)" opacity="0.5">
    <path id="Path_89" data-name="Path 89" d="M4.316.058a.321.321,0,0,0-.17.536L5.68,2.207a2.039,2.039,0,0,1,0,2.775l-.944.993a1.8,1.8,0,0,1-2.638,0L.565,4.362a.3.3,0,0,0-.51.179A5.49,5.49,0,0,0,1.485,9.1a4.91,4.91,0,0,0,4.247,1.514,2.079,2.079,0,0,1,1.8.64L19,23.314a2.153,2.153,0,0,0,3.157,0,2.434,2.434,0,0,0,0-3.322L10.7,7.922a2.327,2.327,0,0,1-.609-1.9A5.508,5.508,0,0,0,8.649,1.557,4.931,4.931,0,0,0,4.316.058Zm16.522,20.9a.709.709,0,0,1,0,.968.627.627,0,0,1-.92,0L8.224,9.62a.709.709,0,0,1,0-.968.627.627,0,0,1,.92,0Z" transform="translate(0 0)" fill="#378fc9"/>
  </g>
</svg>
