<svg xmlns="http://www.w3.org/2000/svg" width="24" height="24" viewBox="0 0 24 24">
  <g id="flaticon1481451614-svg" transform="translate(-16.062)" opacity="0.5">
    <g id="Group_73" data-name="Group 73" transform="translate(16.062)">
      <path id="Path_90" data-name="Path 90" d="M18.133,10.031a2.059,2.059,0,0,0,1.892-1.175,8.751,8.751,0,0,1,8.038-5.005,9,9,0,0,1,5.286,1.7L32.2,5.713a.866.866,0,0,0-.751.715.828.828,0,0,0,.52.875l6.315,2.654a.952.952,0,0,0,.853-.059.827.827,0,0,0,.411-.7l.033-6.5a.845.845,0,0,0-.634-.8.929.929,0,0,0-1.007.337l-.87,1.222A13.277,13.277,0,0,0,28.062,0,12.9,12.9,0,0,0,16.226,7.342a1.825,1.825,0,0,0,.181,1.822A2.113,2.113,0,0,0,18.133,10.031Z" transform="translate(-16.062)" fill="#378fc9"/>
      <path id="Path_91" data-name="Path 91" d="M48.367,284.457a2.113,2.113,0,0,0-1.726-.867,2.059,2.059,0,0,0-1.892,1.175,8.751,8.751,0,0,1-8.038,5.005,9,9,0,0,1-5.286-1.7l1.148-.166a.867.867,0,0,0,.751-.715.828.828,0,0,0-.52-.875l-6.315-2.654a.952.952,0,0,0-.853.059.826.826,0,0,0-.411.7l-.033,6.5a.845.845,0,0,0,.634.8.929.929,0,0,0,1.007-.337l.87-1.222a13.277,13.277,0,0,0,9.007,3.453,12.9,12.9,0,0,0,11.836-7.342A1.825,1.825,0,0,0,48.367,284.457Z" transform="translate(-24.711 -269.621)" fill="#378fc9"/>
    </g>
  </g>
</svg>
